<?xml version="1.0" encoding="utf-8"?>
<!DOCTYPE svg PUBLIC "-//W3C//DTD SVG 1.1//EN" "http://www.w3.org/Graphics/SVG/1.1/DTD/svg11.dtd">
<svg version="1.1" xmlns="http://www.w3.org/2000/svg" xmlns:xlink="http://www.w3.org/1999/xlink" width="19" height="19" viewBox="0 0 19 19">
<!-- <path fill="#444" d="M0 7h3v1h-3zM1 9h2v1h-2zM2 11h1v1h-1z" /> -->
<!-- <path fill="#444" d="M4 6h1.5l1 1h1l1-1h5.5v3h-4v1h4v1h-4v1h4v1h-5.5l-1-1h-1l-1 1h-1.5z" /> -->
<!-- <path fill="#444" d="M4 6h1.5l1 1h1l1-1h5.5v4h-4.5v0.7h4.5v2.3h-5.5l-1-1h-1l-1 1h-1.5z" /> -->
<!-- <path fill="#444" d="M4 6h1.5l1 1h1l1-1h5.5v7h-5.5l-1-1h-1l-1 1h-1.5z" /> -->
<!-- <path fill="#444" d="M15 7c4.5 0 4.5 5 0 5z" /> -->
<!-- <rect x="0" y="0" width="19" height="19" fill="rgb(233,233,233)" /> -->
<!-- <path fill="#444" d="M0 5h1.5l1.5 1.5h1.5l1.5-1.5h8v9h-8l-1.5-1.5h-1.5l-1.5 1.5h-1.5z" /> -->
<path fill="#444" d="M0 5h1.5l0.5 1.5h0.5l1.5-1.5h9v4h-7v0.67h7v1h-7v1.33h7v2h-9l-1.5-1.5h-0.5l-0.5 1.5h-1.5z" />
<path fill="#444" d="M14 6c6 0 6 7 0 7z" />
</svg>